<mxfile host="app.diagrams.net" modified="2022-01-28T17:02:04.097Z" agent="5.0 (Windows)" etag="XVg2_vT7I43oJ-9Rl7v9" version="16.5.1" type="github">
  <diagram id="B_9m8_MGN9P_FBoZ8yHJ" name="Page-1">
    <mxGraphModel dx="1299" dy="892" grid="1" gridSize="10" guides="1" tooltips="1" connect="1" arrows="1" fold="1" page="1" pageScale="1" pageWidth="827" pageHeight="1169" math="0" shadow="0">
      <root>
        <mxCell id="0" />
        <mxCell id="1" parent="0" />
        <mxCell id="nxrylhRpso8Z5jgPgGK--4" value="" style="shape=umlActor;verticalLabelPosition=bottom;verticalAlign=top;html=1;outlineConnect=0;fillColor=#dae8fc;strokeColor=#6c8ebf;" vertex="1" parent="1">
          <mxGeometry x="110" y="310" width="20" height="40" as="geometry" />
        </mxCell>
        <mxCell id="nxrylhRpso8Z5jgPgGK--6" value="" style="rounded=0;whiteSpace=wrap;html=1;fillColor=#f5f5f5;fontColor=#333333;strokeColor=#666666;" vertex="1" parent="1">
          <mxGeometry x="90" y="64" width="670" height="30" as="geometry" />
        </mxCell>
        <mxCell id="nxrylhRpso8Z5jgPgGK--12" value="" style="ellipse;whiteSpace=wrap;html=1;aspect=fixed;fillColor=#e1d5e7;strokeColor=#9673a6;" vertex="1" parent="1">
          <mxGeometry x="120" y="360" width="80" height="80" as="geometry" />
        </mxCell>
        <mxCell id="nxrylhRpso8Z5jgPgGK--27" value="" style="shape=umlActor;verticalLabelPosition=bottom;verticalAlign=top;html=1;outlineConnect=0;fillColor=#dae8fc;strokeColor=#6c8ebf;" vertex="1" parent="1">
          <mxGeometry x="150" y="110" width="20" height="40" as="geometry" />
        </mxCell>
        <mxCell id="nxrylhRpso8Z5jgPgGK--29" value="" style="shape=umlActor;verticalLabelPosition=bottom;verticalAlign=top;html=1;outlineConnect=0;fillColor=#dae8fc;strokeColor=#6c8ebf;" vertex="1" parent="1">
          <mxGeometry x="180" y="310" width="20" height="40" as="geometry" />
        </mxCell>
        <mxCell id="nxrylhRpso8Z5jgPgGK--31" value="" style="endArrow=classic;html=1;rounded=0;fontSize=25;strokeColor=#6c8ebf;strokeWidth=2;fillColor=#dae8fc;" edge="1" parent="1">
          <mxGeometry width="50" height="50" relative="1" as="geometry">
            <mxPoint x="119.35" y="120" as="sourcePoint" />
            <mxPoint x="119" y="290" as="targetPoint" />
          </mxGeometry>
        </mxCell>
        <mxCell id="nxrylhRpso8Z5jgPgGK--32" value="" style="endArrow=classic;html=1;rounded=0;fontSize=25;strokeColor=#6c8ebf;strokeWidth=2;fillColor=#dae8fc;" edge="1" parent="1">
          <mxGeometry width="50" height="50" relative="1" as="geometry">
            <mxPoint x="160" y="290" as="sourcePoint" />
            <mxPoint x="160" y="160" as="targetPoint" />
          </mxGeometry>
        </mxCell>
        <mxCell id="nxrylhRpso8Z5jgPgGK--33" value="" style="endArrow=classic;html=1;rounded=0;fontSize=25;strokeColor=#6c8ebf;strokeWidth=2;fillColor=#dae8fc;" edge="1" parent="1">
          <mxGeometry width="50" height="50" relative="1" as="geometry">
            <mxPoint x="190.35000000000002" y="120" as="sourcePoint" />
            <mxPoint x="190" y="290" as="targetPoint" />
          </mxGeometry>
        </mxCell>
        <mxCell id="nxrylhRpso8Z5jgPgGK--34" value="" style="shape=umlActor;verticalLabelPosition=bottom;verticalAlign=top;html=1;outlineConnect=0;fillColor=#dae8fc;strokeColor=#6c8ebf;" vertex="1" parent="1">
          <mxGeometry x="650" y="310" width="20" height="40" as="geometry" />
        </mxCell>
        <mxCell id="nxrylhRpso8Z5jgPgGK--35" value="" style="ellipse;whiteSpace=wrap;html=1;aspect=fixed;fillColor=#fff2cc;strokeColor=#d6b656;" vertex="1" parent="1">
          <mxGeometry x="660" y="360" width="80" height="80" as="geometry" />
        </mxCell>
        <mxCell id="nxrylhRpso8Z5jgPgGK--36" value="" style="shape=umlActor;verticalLabelPosition=bottom;verticalAlign=top;html=1;outlineConnect=0;fillColor=#dae8fc;strokeColor=#6c8ebf;" vertex="1" parent="1">
          <mxGeometry x="690" y="110" width="20" height="40" as="geometry" />
        </mxCell>
        <mxCell id="nxrylhRpso8Z5jgPgGK--37" value="" style="shape=umlActor;verticalLabelPosition=bottom;verticalAlign=top;html=1;outlineConnect=0;fillColor=#dae8fc;strokeColor=#6c8ebf;" vertex="1" parent="1">
          <mxGeometry x="720" y="310" width="20" height="40" as="geometry" />
        </mxCell>
        <mxCell id="nxrylhRpso8Z5jgPgGK--38" value="" style="endArrow=classic;html=1;rounded=0;fontSize=25;strokeColor=#6c8ebf;strokeWidth=2;fillColor=#dae8fc;" edge="1" parent="1">
          <mxGeometry width="50" height="50" relative="1" as="geometry">
            <mxPoint x="659.3499999999999" y="120" as="sourcePoint" />
            <mxPoint x="659" y="290" as="targetPoint" />
          </mxGeometry>
        </mxCell>
        <mxCell id="nxrylhRpso8Z5jgPgGK--39" value="" style="endArrow=classic;html=1;rounded=0;fontSize=25;strokeColor=#6c8ebf;strokeWidth=2;fillColor=#dae8fc;" edge="1" parent="1">
          <mxGeometry width="50" height="50" relative="1" as="geometry">
            <mxPoint x="700" y="290" as="sourcePoint" />
            <mxPoint x="700" y="160" as="targetPoint" />
          </mxGeometry>
        </mxCell>
        <mxCell id="nxrylhRpso8Z5jgPgGK--40" value="" style="endArrow=classic;html=1;rounded=0;fontSize=25;strokeColor=#6c8ebf;strokeWidth=2;fillColor=#dae8fc;" edge="1" parent="1">
          <mxGeometry width="50" height="50" relative="1" as="geometry">
            <mxPoint x="730.3499999999999" y="120" as="sourcePoint" />
            <mxPoint x="730" y="290" as="targetPoint" />
          </mxGeometry>
        </mxCell>
        <mxCell id="nxrylhRpso8Z5jgPgGK--48" value="" style="shape=umlActor;verticalLabelPosition=bottom;verticalAlign=top;html=1;outlineConnect=0;fillColor=#dae8fc;strokeColor=#6c8ebf;" vertex="1" parent="1">
          <mxGeometry x="380" y="310" width="20" height="40" as="geometry" />
        </mxCell>
        <mxCell id="nxrylhRpso8Z5jgPgGK--49" value="" style="ellipse;whiteSpace=wrap;html=1;aspect=fixed;fillColor=#d5e8d4;strokeColor=#82b366;" vertex="1" parent="1">
          <mxGeometry x="390" y="360" width="80" height="80" as="geometry" />
        </mxCell>
        <mxCell id="nxrylhRpso8Z5jgPgGK--50" value="" style="shape=umlActor;verticalLabelPosition=bottom;verticalAlign=top;html=1;outlineConnect=0;fillColor=#dae8fc;strokeColor=#6c8ebf;" vertex="1" parent="1">
          <mxGeometry x="420" y="110" width="20" height="40" as="geometry" />
        </mxCell>
        <mxCell id="nxrylhRpso8Z5jgPgGK--51" value="" style="shape=umlActor;verticalLabelPosition=bottom;verticalAlign=top;html=1;outlineConnect=0;fillColor=#dae8fc;strokeColor=#6c8ebf;" vertex="1" parent="1">
          <mxGeometry x="450" y="310" width="20" height="40" as="geometry" />
        </mxCell>
        <mxCell id="nxrylhRpso8Z5jgPgGK--52" value="" style="endArrow=classic;html=1;rounded=0;fontSize=25;strokeColor=#6c8ebf;strokeWidth=2;fillColor=#dae8fc;" edge="1" parent="1">
          <mxGeometry width="50" height="50" relative="1" as="geometry">
            <mxPoint x="389.3499999999999" y="120" as="sourcePoint" />
            <mxPoint x="389" y="290" as="targetPoint" />
          </mxGeometry>
        </mxCell>
        <mxCell id="nxrylhRpso8Z5jgPgGK--53" value="" style="endArrow=classic;html=1;rounded=0;fontSize=25;strokeColor=#6c8ebf;strokeWidth=2;fillColor=#dae8fc;" edge="1" parent="1">
          <mxGeometry width="50" height="50" relative="1" as="geometry">
            <mxPoint x="430" y="290" as="sourcePoint" />
            <mxPoint x="430" y="160" as="targetPoint" />
          </mxGeometry>
        </mxCell>
        <mxCell id="nxrylhRpso8Z5jgPgGK--54" value="" style="endArrow=classic;html=1;rounded=0;fontSize=25;strokeColor=#6c8ebf;strokeWidth=2;fillColor=#dae8fc;" edge="1" parent="1">
          <mxGeometry width="50" height="50" relative="1" as="geometry">
            <mxPoint x="460.3499999999999" y="120" as="sourcePoint" />
            <mxPoint x="460" y="290" as="targetPoint" />
          </mxGeometry>
        </mxCell>
        <mxCell id="nxrylhRpso8Z5jgPgGK--55" value="" style="shape=umlActor;verticalLabelPosition=bottom;verticalAlign=top;html=1;outlineConnect=0;fillColor=#dae8fc;strokeColor=#6c8ebf;" vertex="1" parent="1">
          <mxGeometry x="115" y="766" width="20" height="40" as="geometry" />
        </mxCell>
        <mxCell id="nxrylhRpso8Z5jgPgGK--56" value="" style="rounded=0;whiteSpace=wrap;html=1;fillColor=#f5f5f5;fontColor=#333333;strokeColor=#666666;" vertex="1" parent="1">
          <mxGeometry x="95" y="520" width="670" height="30" as="geometry" />
        </mxCell>
        <mxCell id="nxrylhRpso8Z5jgPgGK--57" value="" style="ellipse;whiteSpace=wrap;html=1;aspect=fixed;fillColor=#e1d5e7;strokeColor=#9673a6;" vertex="1" parent="1">
          <mxGeometry x="125" y="816" width="80" height="80" as="geometry" />
        </mxCell>
        <mxCell id="nxrylhRpso8Z5jgPgGK--58" value="" style="shape=umlActor;verticalLabelPosition=bottom;verticalAlign=top;html=1;outlineConnect=0;fillColor=#dae8fc;strokeColor=#6c8ebf;" vertex="1" parent="1">
          <mxGeometry x="155" y="566" width="20" height="40" as="geometry" />
        </mxCell>
        <mxCell id="nxrylhRpso8Z5jgPgGK--59" value="" style="shape=umlActor;verticalLabelPosition=bottom;verticalAlign=top;html=1;outlineConnect=0;fillColor=#dae8fc;strokeColor=#6c8ebf;" vertex="1" parent="1">
          <mxGeometry x="185" y="766" width="20" height="40" as="geometry" />
        </mxCell>
        <mxCell id="nxrylhRpso8Z5jgPgGK--60" value="" style="endArrow=classic;html=1;rounded=0;fontSize=25;strokeColor=#6c8ebf;strokeWidth=2;fillColor=#dae8fc;" edge="1" parent="1">
          <mxGeometry width="50" height="50" relative="1" as="geometry">
            <mxPoint x="124.34999999999991" y="576" as="sourcePoint" />
            <mxPoint x="124" y="746" as="targetPoint" />
          </mxGeometry>
        </mxCell>
        <mxCell id="nxrylhRpso8Z5jgPgGK--61" value="" style="endArrow=classic;html=1;rounded=0;fontSize=25;strokeColor=#6c8ebf;strokeWidth=2;fillColor=#dae8fc;" edge="1" parent="1">
          <mxGeometry width="50" height="50" relative="1" as="geometry">
            <mxPoint x="165" y="746" as="sourcePoint" />
            <mxPoint x="165" y="616" as="targetPoint" />
          </mxGeometry>
        </mxCell>
        <mxCell id="nxrylhRpso8Z5jgPgGK--62" value="" style="endArrow=classic;html=1;rounded=0;fontSize=25;strokeColor=#6c8ebf;strokeWidth=2;fillColor=#dae8fc;" edge="1" parent="1">
          <mxGeometry width="50" height="50" relative="1" as="geometry">
            <mxPoint x="195.3499999999999" y="576" as="sourcePoint" />
            <mxPoint x="195" y="746" as="targetPoint" />
          </mxGeometry>
        </mxCell>
        <mxCell id="nxrylhRpso8Z5jgPgGK--63" value="" style="shape=umlActor;verticalLabelPosition=bottom;verticalAlign=top;html=1;outlineConnect=0;fillColor=#f5f5f5;strokeColor=#666666;fontColor=#333333;" vertex="1" parent="1">
          <mxGeometry x="490" y="766" width="20" height="40" as="geometry" />
        </mxCell>
        <mxCell id="nxrylhRpso8Z5jgPgGK--64" value="" style="ellipse;whiteSpace=wrap;html=1;aspect=fixed;fillColor=#fff2cc;strokeColor=#d6b656;" vertex="1" parent="1">
          <mxGeometry x="500" y="816" width="80" height="80" as="geometry" />
        </mxCell>
        <mxCell id="nxrylhRpso8Z5jgPgGK--65" value="" style="shape=umlActor;verticalLabelPosition=bottom;verticalAlign=top;html=1;outlineConnect=0;fillColor=#f5f5f5;strokeColor=#666666;fontColor=#333333;" vertex="1" parent="1">
          <mxGeometry x="530" y="566" width="20" height="40" as="geometry" />
        </mxCell>
        <mxCell id="nxrylhRpso8Z5jgPgGK--66" value="" style="shape=umlActor;verticalLabelPosition=bottom;verticalAlign=top;html=1;outlineConnect=0;fillColor=#f5f5f5;strokeColor=#666666;fontColor=#333333;" vertex="1" parent="1">
          <mxGeometry x="560" y="766" width="20" height="40" as="geometry" />
        </mxCell>
        <mxCell id="nxrylhRpso8Z5jgPgGK--67" value="" style="endArrow=classic;html=1;rounded=0;fontSize=25;strokeColor=#666666;strokeWidth=2;fillColor=#f5f5f5;" edge="1" parent="1">
          <mxGeometry width="50" height="50" relative="1" as="geometry">
            <mxPoint x="499.3499999999999" y="576" as="sourcePoint" />
            <mxPoint x="499" y="746" as="targetPoint" />
          </mxGeometry>
        </mxCell>
        <mxCell id="nxrylhRpso8Z5jgPgGK--68" value="" style="endArrow=classic;html=1;rounded=0;fontSize=25;strokeColor=#666666;strokeWidth=2;fillColor=#f5f5f5;" edge="1" parent="1">
          <mxGeometry width="50" height="50" relative="1" as="geometry">
            <mxPoint x="540" y="746" as="sourcePoint" />
            <mxPoint x="540" y="616" as="targetPoint" />
          </mxGeometry>
        </mxCell>
        <mxCell id="nxrylhRpso8Z5jgPgGK--69" value="" style="endArrow=classic;html=1;rounded=0;fontSize=25;strokeColor=#666666;strokeWidth=2;fillColor=#f5f5f5;" edge="1" parent="1">
          <mxGeometry width="50" height="50" relative="1" as="geometry">
            <mxPoint x="570.3500000000001" y="576" as="sourcePoint" />
            <mxPoint x="570" y="746" as="targetPoint" />
          </mxGeometry>
        </mxCell>
        <mxCell id="nxrylhRpso8Z5jgPgGK--70" value="" style="shape=umlActor;verticalLabelPosition=bottom;verticalAlign=top;html=1;outlineConnect=0;fillColor=#f8cecc;strokeColor=#b85450;" vertex="1" parent="1">
          <mxGeometry x="300" y="870" width="20" height="40" as="geometry" />
        </mxCell>
        <mxCell id="nxrylhRpso8Z5jgPgGK--71" value="" style="ellipse;whiteSpace=wrap;html=1;aspect=fixed;fillColor=#d5e8d4;strokeColor=#82b366;" vertex="1" parent="1">
          <mxGeometry x="310" y="920" width="80" height="80" as="geometry" />
        </mxCell>
        <mxCell id="nxrylhRpso8Z5jgPgGK--72" value="" style="shape=umlActor;verticalLabelPosition=bottom;verticalAlign=top;html=1;outlineConnect=0;fillColor=#f8cecc;strokeColor=#b85450;" vertex="1" parent="1">
          <mxGeometry x="340" y="670" width="20" height="40" as="geometry" />
        </mxCell>
        <mxCell id="nxrylhRpso8Z5jgPgGK--73" value="" style="shape=umlActor;verticalLabelPosition=bottom;verticalAlign=top;html=1;outlineConnect=0;fillColor=#f8cecc;strokeColor=#b85450;" vertex="1" parent="1">
          <mxGeometry x="370" y="870" width="20" height="40" as="geometry" />
        </mxCell>
        <mxCell id="nxrylhRpso8Z5jgPgGK--74" value="" style="endArrow=classic;html=1;rounded=0;fontSize=25;strokeColor=#b85450;strokeWidth=2;fillColor=#f8cecc;" edge="1" parent="1">
          <mxGeometry width="50" height="50" relative="1" as="geometry">
            <mxPoint x="309.3499999999999" y="680" as="sourcePoint" />
            <mxPoint x="309" y="850" as="targetPoint" />
          </mxGeometry>
        </mxCell>
        <mxCell id="nxrylhRpso8Z5jgPgGK--75" value="" style="endArrow=classic;html=1;rounded=0;fontSize=25;strokeColor=#b85450;strokeWidth=2;fillColor=#f8cecc;" edge="1" parent="1">
          <mxGeometry width="50" height="50" relative="1" as="geometry">
            <mxPoint x="350" y="850" as="sourcePoint" />
            <mxPoint x="350" y="720" as="targetPoint" />
          </mxGeometry>
        </mxCell>
        <mxCell id="nxrylhRpso8Z5jgPgGK--76" value="" style="endArrow=classic;html=1;rounded=0;fontSize=25;strokeColor=#b85450;strokeWidth=2;fillColor=#f8cecc;" edge="1" parent="1">
          <mxGeometry width="50" height="50" relative="1" as="geometry">
            <mxPoint x="380.3499999999999" y="680" as="sourcePoint" />
            <mxPoint x="380" y="850" as="targetPoint" />
          </mxGeometry>
        </mxCell>
        <mxCell id="nxrylhRpso8Z5jgPgGK--77" value="" style="shape=umlActor;verticalLabelPosition=bottom;verticalAlign=top;html=1;outlineConnect=0;fillColor=#1ba1e2;strokeColor=#006EAF;fontColor=#ffffff;" vertex="1" parent="1">
          <mxGeometry x="660" y="790" width="20" height="40" as="geometry" />
        </mxCell>
        <mxCell id="nxrylhRpso8Z5jgPgGK--78" value="" style="ellipse;whiteSpace=wrap;html=1;aspect=fixed;fillColor=#1ba1e2;strokeColor=#006EAF;fontColor=#ffffff;" vertex="1" parent="1">
          <mxGeometry x="670" y="840" width="80" height="80" as="geometry" />
        </mxCell>
        <mxCell id="nxrylhRpso8Z5jgPgGK--79" value="" style="shape=umlActor;verticalLabelPosition=bottom;verticalAlign=top;html=1;outlineConnect=0;fillColor=#1ba1e2;strokeColor=#006EAF;fontColor=#ffffff;" vertex="1" parent="1">
          <mxGeometry x="700" y="590" width="20" height="40" as="geometry" />
        </mxCell>
        <mxCell id="nxrylhRpso8Z5jgPgGK--80" value="" style="shape=umlActor;verticalLabelPosition=bottom;verticalAlign=top;html=1;outlineConnect=0;fillColor=#1ba1e2;strokeColor=#006EAF;fontColor=#ffffff;" vertex="1" parent="1">
          <mxGeometry x="730" y="790" width="20" height="40" as="geometry" />
        </mxCell>
        <mxCell id="nxrylhRpso8Z5jgPgGK--81" value="" style="endArrow=classic;html=1;rounded=0;fontSize=25;strokeColor=#006EAF;strokeWidth=2;fillColor=#1ba1e2;" edge="1" parent="1">
          <mxGeometry width="50" height="50" relative="1" as="geometry">
            <mxPoint x="669.3499999999999" y="600" as="sourcePoint" />
            <mxPoint x="669" y="770" as="targetPoint" />
          </mxGeometry>
        </mxCell>
        <mxCell id="nxrylhRpso8Z5jgPgGK--82" value="" style="endArrow=classic;html=1;rounded=0;fontSize=25;strokeColor=#006EAF;strokeWidth=2;fillColor=#1ba1e2;" edge="1" parent="1">
          <mxGeometry width="50" height="50" relative="1" as="geometry">
            <mxPoint x="710" y="770" as="sourcePoint" />
            <mxPoint x="710" y="640" as="targetPoint" />
          </mxGeometry>
        </mxCell>
        <mxCell id="nxrylhRpso8Z5jgPgGK--83" value="" style="endArrow=classic;html=1;rounded=0;fontSize=25;strokeColor=#006EAF;strokeWidth=2;fillColor=#1ba1e2;" edge="1" parent="1">
          <mxGeometry width="50" height="50" relative="1" as="geometry">
            <mxPoint x="740.3499999999999" y="600" as="sourcePoint" />
            <mxPoint x="740" y="770" as="targetPoint" />
          </mxGeometry>
        </mxCell>
      </root>
    </mxGraphModel>
  </diagram>
</mxfile>
